<?xml version="1.0" standalone="no"?><!DOCTYPE svg PUBLIC "-//W3C//DTD SVG 1.1//EN" "http://www.w3.org/Graphics/SVG/1.1/DTD/svg11.dtd"><svg t="1628747409851" class="icon" viewBox="0 0 1024 1024" version="1.1" xmlns="http://www.w3.org/2000/svg" p-id="5079" xmlns:xlink="http://www.w3.org/1999/xlink" width="200" height="200"><defs><style type="text/css"></style></defs><path d="M739.6 836.09H302.97c-5.93 0-11.86-0.05-17.79 0h-0.78l27.62 27.62v-31.3-73.48-86.28-70c0-13.23-0.37-26.57 0.54-39.78 0.34-4.95 0.85-9.88 1.5-14.8l-0.99 7.34c2.7-19.89 8-39.34 15.78-57.84-0.93 2.2-1.86 4.4-2.78 6.6 7.65-18.06 17.6-35.06 29.57-50.6-1.44 1.86-2.88 3.73-4.32 5.59a231.515 231.515 0 0 1 41.17-41.17c-1.86 1.44-3.73 2.88-5.59 4.32a229.862 229.862 0 0 1 50.6-29.57c-2.2 0.93-4.4 1.86-6.6 2.78 18.5-7.78 37.95-13.08 57.84-15.78l-7.34 0.99c20.3-2.69 40.89-2.69 61.19 0l-7.34-0.99c19.89 2.7 39.34 8 57.84 15.78-2.2-0.93-4.4-1.86-6.6-2.78 18.06 7.65 35.06 17.6 50.6 29.57-1.86-1.44-3.73-2.88-5.59-4.32a231.515 231.515 0 0 1 41.17 41.17c-1.44-1.86-2.88-3.73-4.32-5.59a229.862 229.862 0 0 1 29.57 50.6c-0.93-2.2-1.86-4.4-2.78-6.6 7.78 18.5 13.08 37.95 15.78 57.84l-0.99-7.34c2.16 16.28 2.04 32.54 2.04 48.9v228.47c0 12.58-0.14 25.17 0 37.75v0.53c0 7.08 3.08 14.52 8.09 19.53 4.79 4.79 12.65 8.4 19.53 8.09 7.14-0.32 14.55-2.67 19.53-8.09 4.96-5.4 8.09-12.05 8.09-19.53v-19.39-48.96-64.71-66.63-54.73-29.01c0-25.32-3.41-50.96-10.78-75.21-5-16.47-11.75-32.6-19.88-47.76-8.08-15.07-17.97-28.99-28.79-42.21a229.272 229.272 0 0 0-31.43-31.57c-13.16-10.87-27.08-20.81-42.09-28.95a263.823 263.823 0 0 0-47.67-20.06c-16.93-5.23-34.43-8.25-52.05-9.98a230.183 230.183 0 0 0-46.8 0.18c-17.61 1.87-35.03 4.95-51.93 10.31-33 10.46-62.93 27.38-89.41 49.57a228.725 228.725 0 0 0-31.2 31.8c-10.73 13.32-20.55 27.25-28.53 42.4-8.02 15.23-14.7 31.4-19.58 47.92-5.02 16.99-7.93 34.61-9.44 52.24-0.92 10.73-0.84 21.45-0.84 32.2V863.74c0 14.93 12.65 27.62 27.62 27.62h436.63c5.93 0 11.86 0.04 17.79 0h0.78c7.08 0 14.52-3.08 19.53-8.09 4.79-4.79 8.4-12.65 8.09-19.53-0.32-7.14-2.67-14.55-8.09-19.53-5.42-4.99-12.06-8.12-19.54-8.12zM545.16 234.72v-25.15-40.09-9.21c0.14-3.8-0.65-7.35-2.38-10.64-1.11-3.42-3.02-6.39-5.71-8.89-2.5-2.69-5.46-4.6-8.89-5.71-3.29-1.73-6.84-2.52-10.64-2.38l-7.34 0.99c-4.68 1.31-8.74 3.68-12.19 7.1-4.96 5.4-8.09 12.05-8.09 19.53V234.72c-0.14 3.8 0.65 7.35 2.38 10.64 1.11 3.42 3.02 6.39 5.71 8.89 2.5 2.69 5.46 4.6 8.89 5.71 3.29 1.73 6.84 2.52 10.64 2.38l7.34-0.99c4.68-1.31 8.74-3.68 12.19-7.1 4.96-5.4 8.09-12.04 8.09-19.53zM790.14 341.2c6.15-6.67 12.3-13.34 18.44-20.01 9.79-10.62 19.58-21.25 29.37-31.87l6.71-7.28c2.69-2.5 4.6-5.46 5.71-8.89 1.73-3.29 2.52-6.84 2.38-10.64 0.14-3.8-0.65-7.35-2.38-10.64-1.11-3.42-3.02-6.39-5.71-8.89-5.26-4.83-12.17-8.42-19.53-8.09l-7.34 0.99c-4.68 1.31-8.74 3.68-12.19 7.1-6.15 6.67-12.3 13.34-18.44 20.01-9.79 10.62-19.58 21.25-29.37 31.87l-6.71 7.28c-2.69 2.5-4.6 5.46-5.71 8.89-1.73 3.29-2.52 6.84-2.38 10.64-0.14 3.8 0.65 7.35 2.38 10.64 1.11 3.42 3.02 6.39 5.71 8.89 5.26 4.83 12.17 8.42 19.53 8.09l7.34-0.99c4.68-1.31 8.74-3.67 12.19-7.1zM295.18 301.3c-7.34-6.44-14.67-12.89-22.01-19.33-11.7-10.28-23.41-20.56-35.11-30.84-2.7-2.37-5.4-4.75-8.1-7.12-2.5-2.69-5.46-4.6-8.89-5.71-3.29-1.73-6.84-2.52-10.64-2.38-3.8-0.14-7.35 0.65-10.64 2.38-3.42 1.11-6.39 3.02-8.89 5.71-4.83 5.26-8.42 12.17-8.09 19.53l0.99 7.34c1.31 4.68 3.68 8.74 7.1 12.19 7.34 6.44 14.67 12.89 22.01 19.33 11.7 10.28 23.41 20.56 35.11 30.84 2.7 2.37 5.4 4.75 8.1 7.12 2.5 2.69 5.46 4.6 8.89 5.71 3.29 1.73 6.84 2.52 10.64 2.38 3.8 0.14 7.35-0.65 10.64-2.38 3.42-1.11 6.39-3.02 8.89-5.71 4.83-5.26 8.42-12.17 8.09-19.53l-0.99-7.34c-1.31-4.69-3.68-8.75-7.1-12.19z" p-id="5080"></path><path d="M152.62 891.32h689.59c9.32 0 18.64 0.08 27.95 0h1.22c14.45 0 28.29-12.7 27.62-27.62-0.67-14.96-12.13-27.62-27.62-27.62H181.79c-9.32 0-18.64-0.08-27.95 0h-1.22c-14.45 0-28.29 12.7-27.62 27.62 0.67 14.97 12.13 27.62 27.62 27.62zM558.68 620.6a79.08 79.08 0 0 1-0.66 9.96l0.99-7.34a75.193 75.193 0 0 1-5.18 18.96c0.93-2.2 1.86-4.4 2.78-6.6a75.396 75.396 0 0 1-9.72 16.58c1.44-1.86 2.88-3.73 4.32-5.59-3.86 4.95-8.3 9.39-13.25 13.25 1.86-1.44 3.73-2.88 5.59-4.32a75.957 75.957 0 0 1-16.58 9.72c2.2-0.93 4.4-1.86 6.6-2.78a75.193 75.193 0 0 1-18.96 5.18l7.34-0.99c-6.61 0.87-13.3 0.87-19.91 0l7.34 0.99a75.193 75.193 0 0 1-18.96-5.18c2.2 0.93 4.4 1.86 6.6 2.78a75.396 75.396 0 0 1-16.58-9.72c1.86 1.44 3.73 2.88 5.59 4.32-4.95-3.86-9.39-8.3-13.25-13.25 1.44 1.86 2.88 3.73 4.32 5.59a75.957 75.957 0 0 1-9.72-16.58c0.93 2.2 1.86 4.4 2.78 6.6a75.193 75.193 0 0 1-5.18-18.96l0.99 7.34c-0.87-6.61-0.87-13.3 0-19.91l-0.99 7.34c0.89-6.52 2.63-12.89 5.18-18.96-0.93 2.2-1.86 4.4-2.78 6.6a75.396 75.396 0 0 1 9.72-16.58c-1.44 1.86-2.88 3.73-4.32 5.59 3.86-4.95 8.3-9.39 13.25-13.25-1.86 1.44-3.73 2.88-5.59 4.32a75.957 75.957 0 0 1 16.58-9.72c-2.2 0.93-4.4 1.86-6.6 2.78a75.193 75.193 0 0 1 18.96-5.18l-7.34 0.99c6.61-0.87 13.3-0.87 19.91 0l-7.34-0.99c6.52 0.89 12.89 2.63 18.96 5.18-2.2-0.93-4.4-1.86-6.6-2.78a75.396 75.396 0 0 1 16.58 9.72c-1.86-1.44-3.73-2.88-5.59-4.32 4.95 3.86 9.39 8.3 13.25 13.25-1.44-1.86-2.88-3.73-4.32-5.59a75.957 75.957 0 0 1 9.72 16.58c-0.93-2.2-1.86-4.4-2.78-6.6a75.193 75.193 0 0 1 5.18 18.96l-0.99-7.34c0.43 3.3 0.65 6.62 0.66 9.95-0.14 3.8 0.65 7.35 2.38 10.64 1.11 3.42 3.02 6.39 5.71 8.89 2.5 2.69 5.46 4.6 8.89 5.71 3.29 1.73 6.84 2.52 10.64 2.38l7.34-0.99c4.68-1.31 8.74-3.68 12.19-7.1 4.95-5.4 8.11-12.05 8.09-19.53-0.02-6.37-0.91-12.7-1.89-18.98-0.61-3.87-1.53-7.7-2.74-11.42-1.89-5.8-4.3-11.49-7.05-16.93a75.19 75.19 0 0 0-5.91-9.78c-3.46-4.83-7.11-9.63-11.24-13.92-4.24-4.41-9.06-8.07-13.93-11.78-7.88-6.01-16.86-10.15-26.13-13.56-3.66-1.35-7.43-2.4-11.25-3.16-6.19-1.22-12.54-2.09-18.86-2.33-4.04-0.16-8.1 0.01-12.11 0.51-6.19 0.76-12.36 1.51-18.37 3.21-5.95 1.68-11.7 4.16-17.3 6.72-3.42 1.57-6.72 3.4-9.86 5.46-5.02 3.31-9.84 7.03-14.32 11.04a74.349 74.349 0 0 0-7.87 8.2c-3.81 4.63-7.58 9.44-10.68 14.6-3.15 5.25-5.45 10.88-7.77 16.53-3.88 9.44-5.54 19.66-6.32 29.8-0.31 3.98-0.3 7.98 0.03 11.96 0.52 6.26 1.34 12.59 2.81 18.7 0.91 3.78 2.13 7.46 3.62 11.05 2.34 5.66 4.64 11.26 7.82 16.5 3.12 5.15 6.89 9.96 10.72 14.57 2.39 2.87 4.99 5.56 7.77 8.04 7.3 6.5 15.43 12.49 24.38 16.53 5.56 2.52 11.25 4.97 17.14 6.62 6.06 1.7 12.32 2.47 18.56 3.2 10.3 1.22 20.84 0.1 30.96-1.94 3.82-0.77 7.58-1.85 11.23-3.21 5.69-2.13 11.39-4.5 16.71-7.46 3.28-1.83 6.39-3.91 9.36-6.19 4.81-3.69 9.57-7.3 13.77-11.69 4.16-4.34 7.86-9.19 11.33-14.08 2.2-3.11 4.17-6.4 5.87-9.81 2.72-5.46 5.13-11.15 7-16.96 1.2-3.73 2.1-7.57 2.69-11.44 0.94-6.17 1.82-12.36 1.84-18.61 0.14-3.8-0.65-7.35-2.38-10.64-1.11-3.42-3.02-6.39-5.71-8.89-2.5-2.69-5.46-4.6-8.89-5.71-3.29-1.73-6.84-2.52-10.64-2.38l-7.34 0.99c-4.68 1.31-8.74 3.68-12.19 7.1-1.44 1.86-2.88 3.73-4.32 5.59-2.51 4.32-3.76 8.96-3.78 13.95z" p-id="5081"></path></svg>